<?xml version="1.0" encoding="UTF-8" standalone="no"?>
<!-- Generator: Adobe Illustrator 27.9.0, SVG Export Plug-In . SVG Version: 6.00 Build 0)  -->

<svg
   version="1.1"
   id="Capa_1"
   x="0px"
   y="0px"
   viewBox="0 0 98 119"
   xml:space="preserve"
   sodipodi:docname="Araña.svg"
   width="98"
   height="119"
   inkscape:version="1.4.2 (ebf0e940d0, 2025-05-08)"
   xmlns:inkscape="http://www.inkscape.org/namespaces/inkscape"
   xmlns:sodipodi="http://sodipodi.sourceforge.net/DTD/sodipodi-0.dtd"
   xmlns="http://www.w3.org/2000/svg"
   xmlns:svg="http://www.w3.org/2000/svg"><defs
   id="defs21">
	
	
	
	
	

		
		
		
		
		
		
		
		
		
		
		
		
	
		
		
		
		
		
		
		
		
	
		
		
		
		
		
		
		
		
	
		
		
		
		
	
			
			
		</defs><sodipodi:namedview
   id="namedview21"
   pagecolor="#ffffff"
   bordercolor="#000000"
   borderopacity="0.25"
   inkscape:showpageshadow="2"
   inkscape:pageopacity="0.0"
   inkscape:pagecheckerboard="0"
   inkscape:deskcolor="#d1d1d1"
   inkscape:zoom="0.65739385"
   inkscape:cx="415.27617"
   inkscape:cy="73.776169"
   inkscape:window-width="1920"
   inkscape:window-height="1008"
   inkscape:window-x="0"
   inkscape:window-y="0"
   inkscape:window-maximized="1"
   inkscape:current-layer="Capa_1" />
<style
   type="text/css"
   id="style1">
	.st0{fill-rule:evenodd;clip-rule:evenodd;}
	.st1{fill-rule:evenodd;clip-rule:evenodd;fill:#62A4D8;}
	.st2{fill-rule:evenodd;clip-rule:evenodd;fill:#2A4470;}
	.st3{fill:#1D1D1B;}
</style>
<path
   class="st0"
   d="m 0,49.6 h 39.2 v -1 C 16.8,44 0,24 0,0 v 0 0 h 19.6 c 0,12.9 8.2,24 19.6,28.1 V 0 H 58.8 V 28.1 C 70.2,24 78.4,13 78.4,0 H 98 C 98,24 81.1,44 58.8,48.6 v 1 H 98 V 69.4 H 58.8 v 1 C 81.2,75 98,95 98,119 v 0 0 H 78.4 C 78.4,106.1 70.2,95 58.8,90.9 V 119 H 39.2 V 90.9 C 27.8,95 19.6,106 19.6,119 H 0 C 0,95 16.8,75 39.2,70.4 v -1 H 0 Z"
   id="path3" />
</svg>
